<svg width="70" height="61" viewBox="0 0 70 61" fill="none" xmlns="http://www.w3.org/2000/svg">
<path d="M36.6462 15.6521L36.7384 15.6796L36.7424 15.675C37.1801 15.7543 37.6143 15.4923 37.7429 15.0582C38.9145 11.1214 42.6056 8.37129 46.718 8.37129C47.2049 8.37129 47.5997 7.97641 47.5997 7.48955C47.5997 7.00268 47.2049 6.60781 46.718 6.60781C41.6639 6.60781 37.4167 9.9729 36.0529 14.5556C35.9138 15.0224 36.1797 15.5129 36.6462 15.6521Z" fill="#B49164" stroke="#F9FFF9" stroke-width="0.3"/>
<path d="M56.9629 43.3447H52.5726C52.1685 43.3447 51.8408 43.017 51.8408 42.6129C51.8408 42.2089 52.1685 41.8812 52.5726 41.8812H56.9629C63.0148 41.8812 67.9388 36.9571 67.9388 30.9052C67.9388 24.8534 63.0148 19.9293 56.9629 19.9293H56.8573C56.6451 19.9293 56.4434 19.8373 56.3043 19.6768C56.1653 19.5164 56.1026 19.3037 56.1329 19.0935C56.1982 18.6378 56.2312 18.1799 56.2312 17.7341C56.2312 12.4892 51.9635 8.22156 46.7186 8.22156C44.6781 8.22156 42.7322 8.85921 41.091 10.066C40.7304 10.331 40.2182 10.2134 40.0096 9.81672C35.3616 0.965949 23.2214 -0.222619 16.9274 7.47678C14.2759 10.7204 13.2341 14.9399 14.0689 19.0523C14.1609 19.5065 13.8133 19.9299 13.3518 19.9299H13.0586C7.00674 19.9299 2.08267 24.8539 2.08267 30.9058C2.08267 36.9577 7.00674 41.8818 13.0586 41.8818H17.4489C17.853 41.8818 18.1807 42.2095 18.1807 42.6135C18.1807 43.0175 17.853 43.3452 17.4489 43.3452H13.0586C6.19964 43.3452 0.619141 37.7647 0.619141 30.9058C0.619141 24.2392 5.89069 18.7804 12.4842 18.4794C11.8649 14.2128 13.0492 9.9092 15.7942 6.55062C22.5329 -1.69335 35.4471 -0.769309 40.9063 8.42332C42.6478 7.33147 44.6407 6.75869 46.7184 6.75869C53.0729 6.75869 58.1083 12.1672 57.6677 18.4862C64.2005 18.8526 69.402 24.2825 69.402 30.9052C69.402 37.7647 63.8215 43.3447 56.9626 43.3447L56.9629 43.3447Z" fill="#B49164"/>
<path d="M16.4691 42.1997C16.4691 52.3697 24.7428 60.6432 34.9126 60.6432C45.0826 60.6432 53.3561 52.3695 53.3561 42.1997C53.3561 32.0298 45.0826 23.7562 34.9126 23.7562C24.7427 23.7562 16.4691 32.0299 16.4691 42.1997ZM18.2329 42.1997C18.2329 33.0028 25.7156 25.52 34.9126 25.52C44.1095 25.52 51.5923 33.0027 51.5923 42.1997C51.5923 51.3966 44.1095 58.8794 34.9126 58.8794C25.7157 58.8794 18.2329 51.3968 18.2329 42.1997Z" fill="#B49164" stroke="#F9FFF9" stroke-width="0.3"/>
<path d="M34.5629 49.5639C34.5629 49.9425 34.87 50.2496 35.2486 50.2496C35.6272 50.2496 35.9343 49.943 35.9343 49.5639V35.6353C35.9343 35.2567 35.6272 34.9496 35.2486 34.9496C34.87 34.9496 34.5629 35.2567 34.5629 35.6353V49.5639Z" fill="#B49164" stroke="#B49164" stroke-width="0.3"/>
<path d="M35.2472 36.6064L31.4466 40.4071L35.2472 36.6064ZM35.2472 36.6064L39.048 40.4072C39.1817 40.5409 39.3577 40.608 39.5329 40.608L35.2472 36.6064ZM30.4767 40.4072C30.7445 40.675 31.1789 40.6752 31.4465 40.4072L39.5329 40.608C39.7077 40.608 39.8839 40.5415 40.0178 40.4071C40.2856 40.1392 40.2856 39.7053 40.0178 39.4374L35.7321 35.1518C35.4643 34.884 35.0299 34.8838 34.7623 35.1518C34.7623 35.1518 34.7623 35.1518 34.7622 35.1519L30.4767 39.4374C30.2088 39.7053 30.2088 40.1393 30.4767 40.4072Z" fill="#B49164" stroke="#B49164" stroke-width="0.3"/>
</svg>
